<?xml version="1.0" standalone="no"?>
<!DOCTYPE svg PUBLIC "-//W3C//DTD SVG 20010904//EN"
 "http://www.w3.org/TR/2001/REC-SVG-20010904/DTD/svg10.dtd">
<svg version="1.0" xmlns="http://www.w3.org/2000/svg"
 width="1024.000000pt" height="1024.000000pt" viewBox="0 0 1024.000000 1024.000000"
 preserveAspectRatio="xMidYMid meet">

<g transform="translate(0.000000,1024.000000) scale(0.100000,-0.100000)"
fill="#000000" stroke="none">
<path d="M8790 9845 c-41 -36 -75 -72 -75 -82 0 -10 12 -22 27 -27 45 -16 94
14 118 70 20 45 27 105 13 103 -5 0 -42 -29 -83 -64z"/>
<path d="M8890 9396 c0 -162 -4 -206 -25 -314 -58 -283 -211 -511 -451 -672
-58 -38 -113 -70 -122 -70 -10 0 -27 -7 -39 -15 -11 -8 -46 -21 -77 -29 -31
-8 -61 -18 -66 -21 -6 -4 -36 -8 -69 -11 -81 -6 -215 30 -183 50 5 3 7 36 4
76 -5 68 -4 70 21 79 31 12 67 71 43 71 -8 0 -18 -4 -21 -10 -3 -5 -17 -10
-30 -10 -29 0 -39 26 -30 81 7 38 4 44 -25 70 -17 16 -36 27 -41 24 -5 -4 -9
-2 -9 3 0 22 -30 20 -42 -3 -20 -38 -117 -115 -144 -115 -24 0 -24 1 -24 100
0 87 -2 100 -17 100 -9 0 -25 -7 -34 -16 -17 -16 -20 -15 -49 16 -21 23 -35
30 -48 25 -35 -15 -62 -17 -91 -7 -30 11 -30 10 -45 -42 -9 -29 -25 -61 -36
-71 -25 -23 -30 -125 -6 -125 19 0 31 -19 19 -31 -5 -5 -22 -5 -41 0 -29 9
-33 7 -38 -15 -3 -13 -12 -24 -19 -24 -8 0 -29 -14 -47 -30 -18 -17 -51 -39
-73 -49 -22 -11 -112 -53 -200 -95 -88 -42 -169 -76 -179 -76 -10 0 -20 -9
-23 -20 -6 -23 -78 -64 -93 -55 -6 3 -10 0 -10 -8 0 -7 -17 -23 -37 -34 -21
-12 -47 -30 -58 -40 -11 -10 -40 -34 -65 -53 -25 -19 -54 -43 -65 -53 -11 -11
-35 -30 -52 -44 l-33 -25 -67 32 c-105 50 -304 118 -453 155 -275 70 -457 90
-729 82 -507 -15 -915 -121 -1386 -361 -208 -106 -200 -102 -191 -88 9 15 -57
13 -66 -2 -6 -8 -11 -6 -18 4 -8 13 -11 11 -16 -7 -4 -13 -11 -20 -17 -16 -6
4 -8 0 -4 -11 4 -9 3 -15 -2 -11 -5 3 -19 -16 -32 -42 -13 -27 -28 -53 -33
-60 -6 -6 -22 -28 -36 -47 -28 -40 -50 -53 -50 -30 0 21 -25 6 -97 -57 -39
-33 -63 -64 -74 -92 -10 -28 -21 -42 -32 -41 -9 1 -17 -2 -17 -7 0 -10 -22
-38 -65 -85 -16 -17 -47 -50 -67 -73 -25 -26 -50 -42 -72 -47 -19 -3 -37 -12
-40 -19 -3 -8 -13 -11 -26 -8 -16 4 -23 0 -27 -16 -3 -12 -13 -21 -24 -21 -11
0 -48 -29 -84 -65 -35 -36 -67 -65 -70 -65 -4 0 -4 11 -1 25 4 14 3 25 -1 26
-5 0 -30 1 -58 2 -27 0 -53 6 -57 11 -5 7 -11 6 -17 -3 -7 -11 -10 -9 -14 10
-5 29 -10 -82 -7 -166 1 -33 10 -107 21 -165 31 -172 21 -236 -19 -127 -56
149 -75 357 -52 574 10 97 8 118 -16 127 -20 8 -52 -48 -59 -104 -5 -44 -19
-73 -151 -327 -125 -238 -239 -520 -280 -690 -26 -107 -28 -151 -5 -95 8 18
18 32 24 32 6 0 62 -16 125 -36 63 -19 116 -34 117 -32 2 2 28 73 58 159 30
86 60 165 66 177 22 42 13 51 -109 112 -136 68 -129 49 -69 177 93 199 187
363 208 363 5 0 12 -21 15 -47 15 -108 58 -340 68 -368 6 -16 22 -54 36 -83
l24 -53 -20 -47 c-11 -26 -35 -81 -53 -122 -81 -188 -164 -482 -194 -685 -19
-129 -36 -387 -30 -454 9 -97 12 -305 5 -286 l-9 20 -1 -20 c-1 -14 -5 -10
-15 15 l-13 35 -1 -32 c-1 -18 -5 -33 -10 -33 -6 0 -8 -17 -5 -37 4 -34 3 -35
-5 -10 -5 15 -13 58 -17 94 l-7 66 -138 -6 -138 -7 -5 28 c-3 15 -6 50 -8 77
l-3 50 50 7 c28 3 75 7 106 7 31 1 71 4 88 7 l31 7 0 71 c0 118 18 342 41 499
11 82 19 150 17 151 -1 1 -57 15 -123 31 -66 15 -125 32 -132 37 -8 6 -14 -1
-21 -24 -18 -57 -43 -196 -58 -322 -8 -66 -17 -139 -21 -160 l-5 -40 -12 29
c-12 29 -13 27 -27 -50 -17 -100 -18 -421 0 -561 17 -135 8 -167 -70 -246 -59
-59 -60 -60 -80 -42 -19 17 -22 17 -32 3 -18 -24 -76 -51 -96 -44 -10 3 -24
-2 -34 -13 -15 -16 -14 -21 6 -61 34 -67 123 -154 216 -211 50 -31 90 -42 55
-15 -18 15 -18 15 6 11 14 -2 33 -7 42 -11 9 -4 26 -2 37 4 18 10 22 7 36 -19
8 -16 23 -30 33 -30 13 0 14 -2 4 -9 -15 -9 38 -21 97 -21 32 0 33 1 19 23
-19 29 -35 75 -59 167 -11 41 -22 82 -24 90 -21 67 -65 311 -75 410 -9 98 -9
125 1 131 14 8 206 23 234 17 17 -3 22 -21 38 -132 10 -71 31 -195 47 -275 28
-138 28 -173 0 -156 -7 4 -9 19 -5 38 5 26 4 29 -5 15 -7 -12 -24 -18 -50 -18
-22 0 -40 -4 -40 -10 0 -5 -18 -10 -39 -10 -33 0 -40 4 -44 23 -3 15 -5 12 -6
-13 -4 -50 -66 170 -92 320 -23 137 -30 163 -24 95 7 -93 36 -259 65 -371 26
-97 58 -204 64 -211 1 -1 51 11 112 27 60 17 114 30 120 30 7 0 14 -10 17 -23
3 -12 8 -33 12 -47 6 -24 6 -24 -10 3 -8 15 -18 27 -20 27 -7 0 -2 -24 6 -30
13 -10 20 -50 9 -50 -7 0 -7 -7 1 -22 7 -13 12 -24 11 -25 -6 -9 0 -23 8 -23
18 0 175 -81 195 -101 23 -23 17 -23 -55 -4 -57 15 -109 20 -80 7 8 -4 16 -16
16 -27 1 -11 9 -54 17 -95 9 -41 20 -106 26 -143 6 -46 15 -73 28 -83 17 -13
17 -13 0 -14 -15 0 -16 -3 -7 -20 8 -14 7 -26 -1 -41 -11 -21 -10 -22 32 -15
l44 6 -38 -23 c-21 -12 -35 -26 -31 -30 4 -4 2 -7 -4 -7 -7 0 -12 -7 -12 -15
0 -8 -4 -15 -10 -15 -5 0 -10 -9 -10 -21 0 -11 -5 -29 -10 -40 -8 -15 -7 -19
4 -19 7 0 16 -7 19 -14 4 -11 1 -13 -11 -10 -39 13 46 -50 156 -115 64 -38
169 -106 232 -151 63 -45 138 -95 167 -112 28 -16 57 -36 65 -45 11 -14 10
-15 -12 -9 -59 18 -250 118 -311 164 -36 28 -124 81 -195 118 -71 37 -137 72
-146 78 -13 8 -21 7 -30 -3 -11 -10 -10 -12 2 -10 8 1 23 -1 33 -6 27 -12 1
-25 -38 -19 l-30 5 30 -18 c17 -9 33 -18 38 -19 4 -1 10 -2 15 -3 4 -1 -1 -6
-10 -12 -28 -16 -22 -36 25 -82 23 -23 82 -100 131 -170 106 -153 308 -383
401 -458 265 -214 325 -269 325 -297 0 -24 17 -3 24 30 6 29 2 36 -36 71 -24
22 -74 63 -113 93 -38 29 -108 92 -155 140 -58 60 -71 77 -40 53 25 -20 77
-60 115 -89 39 -30 88 -69 110 -87 32 -28 45 -32 70 -27 32 7 85 50 85 70 0 6
11 22 25 36 22 22 36 26 123 31 53 3 106 9 117 12 20 7 20 7 0 -9 -11 -9 -37
-22 -57 -28 -21 -6 -38 -14 -38 -17 0 -8 242 -131 258 -131 6 0 87 -38 180
-84 92 -46 187 -91 212 -100 48 -18 84 -44 91 -64 3 -9 25 -2 74 23 39 19 71
35 72 35 9 0 -24 -62 -51 -95 -36 -43 -104 -81 -199 -111 -53 -17 -61 -23 -83
-65 -28 -55 -23 -59 54 -47 41 7 68 5 111 -8 53 -15 374 -120 397 -130 6 -3
14 2 18 11 4 11 2 14 -7 9 -9 -6 -9 -4 1 8 10 13 10 17 0 21 -28 11 20 6 122
-13 244 -46 328 -54 590 -54 235 0 410 11 515 34 22 5 83 16 135 25 354 62
748 207 1053 387 83 50 86 29 -34 243 -17 30 -28 55 -25 55 7 0 61 -85 109
-172 21 -38 40 -68 43 -68 5 0 71 43 98 64 11 9 16 21 12 32 -5 13 -4 15 7 5
12 -9 40 9 140 88 128 101 347 306 347 323 0 6 -52 59 -115 120 -63 61 -115
115 -115 120 0 19 49 -19 146 -113 56 -55 106 -99 112 -99 14 0 82 71 82 86 0
6 -52 60 -115 119 -64 59 -114 110 -111 112 4 4 67 -47 216 -174 l38 -33 44
53 c56 65 188 247 188 258 0 7 -171 143 -240 191 -17 11 -20 17 -10 17 8 1 73
-42 143 -94 70 -53 132 -93 137 -90 13 8 60 92 60 107 -1 7 -52 51 -115 97
-138 102 -170 129 -162 137 3 3 69 -42 147 -100 78 -58 146 -104 150 -101 13
8 220 384 220 399 0 3 -19 16 -42 29 -254 145 -236 137 -251 113 -8 -11 -20
-38 -28 -58 -7 -21 -16 -38 -20 -38 -4 0 4 27 18 61 13 33 22 67 19 74 -4 11
0 12 21 4 40 -15 192 -99 243 -133 25 -17 48 -30 53 -28 41 13 -88 -244 -254
-502 -128 -201 -214 -310 -384 -491 -210 -223 -297 -303 -450 -415 -55 -41
-107 -79 -115 -87 -38 -34 -135 -103 -152 -109 -10 -3 -16 -10 -13 -15 4 -5
-3 -9 -14 -9 -11 0 -32 -11 -47 -25 -29 -27 -39 -32 -28 -14 4 7 -3 6 -17 -2
-15 -7 -19 -14 -11 -17 8 -2 5 -10 -10 -23 -30 -24 -17 -24 29 1 21 11 44 20
51 20 7 0 10 5 6 11 -4 8 1 9 17 4 13 -4 21 -4 17 0 -8 8 44 45 62 45 18 0
216 125 310 196 215 162 467 416 636 641 409 545 645 1110 730 1753 18 137 27
416 14 461 -5 16 -4 54 1 86 6 32 12 103 16 158 3 55 9 105 15 112 5 6 50 35
101 65 125 72 280 228 254 255 -4 3 -31 -5 -59 -20 -29 -14 -78 -31 -109 -37
-72 -14 -195 -16 -238 -4 l-34 9 -33 146 c-53 236 -79 305 -36 94 11 -55 23
-127 26 -160 l5 -60 -14 63 c-17 72 -34 111 -35 77 0 -14 -7 -21 -21 -22 -11
-1 -27 -7 -35 -14 -13 -11 -12 -14 8 -26 20 -12 20 -14 3 -10 -11 3 -29 8 -40
12 -20 7 -20 6 -1 -9 33 -27 6 -18 -48 16 -93 57 -96 63 -96 142 0 100 -27
241 -58 304 -28 58 -77 106 -98 98 -8 -3 -14 1 -14 10 0 8 28 28 68 46 37 17
70 36 74 42 4 6 8 8 8 4 0 -4 16 0 35 8 45 18 55 18 56 -3 0 -14 2 -14 6 -4 7
18 28 -32 94 -224 27 -77 46 -125 43 -106 -9 50 -69 229 -121 361 -49 125 -93
215 -172 355 -54 95 -60 115 -36 115 23 0 18 18 -26 87 -22 35 -39 72 -37 81
2 10 41 37 90 62 144 75 218 129 328 239 161 161 256 315 375 611 160 395 208
622 208 990 0 139 -4 205 -17 265 -23 104 -63 226 -82 245 -12 12 -14 -10 -14
-174z m-274 -1066 c-26 -31 -35 -57 -16 -45 6 3 10 13 10 21 0 17 12 18 29 2
10 -11 11 -10 8 2 -2 8 -2 12 0 7 3 -4 9 -5 14 -1 11 6 -22 -81 -55 -146 -77
-152 -152 -254 -265 -362 -113 -108 -204 -172 -336 -234 -52 -25 -95 -48 -95
-51 0 -8 186 7 265 22 74 14 198 57 223 78 13 10 14 9 4 -9 -24 -46 -214 -184
-310 -225 -62 -28 -226 -82 -329 -109 -46 -12 -80 -26 -77 -31 3 -5 -1 -6 -9
-3 -18 6 -70 -13 -63 -25 3 -4 -7 -6 -22 -4 -23 3 -24 2 -7 -6 11 -5 14 -10 8
-10 -8 -1 -13 -16 -13 -41 0 -37 -3 -41 -30 -46 -16 -4 -30 -10 -30 -15 0 -5
14 -6 32 -2 22 4 29 3 24 -5 -4 -7 -17 -12 -29 -12 -21 -1 -21 -1 2 -14 l25
-14 -43 -21 c-130 -67 -253 -255 -283 -435 -12 -75 -3 -121 33 -160 11 -11 19
-25 19 -30 0 -10 10 -24 65 -88 56 -65 85 -104 85 -116 0 -51 181 -134 330
-150 104 -12 156 -6 234 28 37 15 46 17 36 5 -14 -17 -130 -75 -150 -75 -7 0
-37 -7 -68 -16 l-57 -17 55 -20 c30 -12 87 -38 125 -59 39 -20 112 -59 162
-85 61 -30 89 -50 80 -55 -6 -4 -7 -8 -2 -9 6 -1 -15 -5 -45 -9 -33 -4 -86 -2
-130 6 -81 14 -173 28 -490 75 -196 29 -307 38 -326 26 -14 -8 -103 17 -249
71 -242 90 -389 174 -530 303 -55 51 -145 162 -145 179 0 5 24 -15 53 -43 50
-50 97 -70 97 -43 0 7 -12 23 -26 37 -44 40 -175 200 -187 228 -6 14 -11 33
-12 41 -1 8 -17 49 -37 90 -125 266 -157 573 -88 843 20 75 73 197 86 197 4 0
14 -8 23 -19 9 -10 27 -17 41 -16 14 1 30 -2 37 -7 17 -14 26 -6 94 83 57 75
185 209 200 209 4 0 21 12 38 27 16 15 36 28 43 30 7 1 26 6 42 9 18 4 31 2
36 -5 4 -7 26 -14 49 -16 26 -1 47 -10 55 -20 9 -12 17 -15 27 -9 8 5 23 9 34
10 11 1 65 9 120 19 112 20 293 22 411 6 283 -41 326 -45 439 -45 148 0 301
40 450 116 83 43 155 89 190 121 11 10 34 27 50 38 17 11 44 35 60 53 38 41
47 38 11 -4z m-3325 -191 c154 -15 346 -55 505 -104 145 -45 379 -139 390
-157 3 -5 -1 -17 -8 -26 -8 -9 -36 -52 -62 -94 -27 -43 -50 -78 -52 -78 -3 0
-26 11 -52 24 -140 71 -440 159 -652 191 -226 34 -549 30 -780 -11 -397 -71
-817 -241 -1105 -448 -424 -304 -733 -667 -955 -1121 -121 -248 -192 -469
-246 -760 -35 -193 -28 -664 12 -863 8 -41 13 -83 11 -95 -3 -16 -5 -14 -6 8
-1 17 -6 37 -12 45 -8 11 -9 1 -4 -37 3 -34 2 -53 -5 -53 -5 0 -10 11 -10 24
0 14 -4 28 -10 31 -5 3 -10 2 -10 -3 0 -5 -18 -17 -39 -27 -21 -9 -44 -27 -49
-39 l-11 -21 0 23 c-1 12 -7 22 -16 22 -11 0 -12 -5 -5 -26 6 -14 10 -37 9
-52 -1 -40 -37 118 -54 238 -71 503 -23 965 147 1420 122 327 252 563 467 845
72 95 105 130 275 299 399 393 805 624 1341 760 330 84 691 116 986 85z m-433
-276 c-15 -2 -42 -2 -60 0 -18 2 -6 4 27 4 33 0 48 -2 33 -4z m-183 -18 c-49
-8 -137 -23 -194 -34 -58 -11 -106 -19 -109 -17 -10 11 278 63 348 64 30 0 16
-5 -45 -13z m-318 -61 c-3 -3 -12 -4 -19 -1 -8 3 -5 6 6 6 11 1 17 -2 13 -5z
m1829 -21 c-10 -10 -19 5 -10 18 6 11 8 11 12 0 2 -7 1 -15 -2 -18z m-2076
-57 c0 -2 -9 -6 -20 -9 -11 -3 -18 -1 -14 4 5 9 34 13 34 5z m-90 -36 c-8 -5
-19 -10 -25 -10 -5 0 -3 5 5 10 8 5 20 10 25 10 6 0 3 -5 -5 -10z m-80 -35
c-14 -8 -29 -14 -35 -14 -5 0 1 6 15 14 14 8 30 14 35 14 6 0 -1 -6 -15 -14z
m-50 -20 c0 -3 -49 -30 -110 -60 -60 -30 -110 -53 -110 -50 0 4 206 112 218
114 1 1 2 -1 2 -4z m-280 -155 c-14 -11 -56 -41 -95 -67 -38 -26 -100 -71
-136 -100 -36 -29 -69 -53 -73 -53 -14 0 109 97 213 169 98 67 146 94 91 51z
m1224 -32 c3 -7 7 -44 10 -81 5 -66 5 -68 -17 -65 -20 3 -22 9 -25 81 -2 65 0
77 13 77 9 0 17 -6 19 -12z m80 -19 c16 -84 -2 -163 -24 -104 -16 41 -13 135
4 135 7 0 16 -14 20 -31z m76 -53 c0 -86 -14 -62 -21 34 0 14 -1 32 0 40 1 13
2 13 11 0 5 -8 10 -42 10 -74z m-227 61 c3 -8 8 -43 12 -80 7 -66 7 -67 -19
-77 l-27 -10 51 -92 c89 -163 245 -481 270 -548 13 -36 29 -76 36 -90 33 -64
56 -130 63 -183 8 -57 7 -59 -17 -68 -13 -5 -33 -7 -44 -3 -25 8 -158 143
-256 259 -42 50 -82 96 -89 103 -7 8 -26 30 -41 50 -15 21 -34 42 -43 49 -9 7
-22 26 -29 43 -7 16 -16 30 -20 30 -10 0 -123 161 -147 210 -4 8 -16 29 -28
45 -54 79 -70 95 -93 95 -22 0 -114 -32 -187 -65 -16 -8 -37 -16 -45 -19 -8
-4 -39 -20 -69 -37 -29 -16 -60 -28 -67 -25 -8 3 -14 0 -14 -8 0 -14 -90 -76
-111 -76 -8 0 -20 -9 -27 -20 -7 -11 -17 -20 -23 -20 -7 0 -23 -12 -36 -26
-18 -20 -27 -24 -36 -15 -18 18 -28 13 -22 -11 4 -17 0 -27 -16 -36 -20 -13
-24 -11 -46 15 l-23 28 17 -38 c15 -33 15 -39 3 -47 -8 -5 -25 -6 -38 -3 -22
5 -23 4 -13 -15 10 -18 8 -24 -13 -37 -24 -16 -26 -15 -47 4 -34 31 -44 25
-18 -10 21 -30 21 -31 3 -50 -19 -18 -20 -18 -79 36 l-59 55 24 25 c12 13 27
22 31 19 5 -3 9 4 9 15 0 12 3 21 8 21 4 0 30 21 57 47 28 25 79 67 115 94 36
26 77 57 92 68 16 13 33 18 44 14 11 -4 15 -3 10 5 -10 16 156 122 193 122 11
0 21 5 21 11 0 5 16 17 35 25 19 8 67 30 105 49 39 19 100 50 138 68 37 19
105 45 152 59 93 28 253 54 269 43 6 -3 11 -16 11 -28 1 -12 8 -33 16 -47 14
-24 15 -23 9 22 -3 27 -3 52 0 58 9 15 42 12 48 -3z m-1473 -190 c0 -2 -10
-12 -22 -23 l-23 -19 19 23 c18 21 26 27 26 19z m4804 -379 c37 -62 65 -120
63 -130 -3 -11 0 -15 9 -11 13 5 74 -111 74 -142 0 -9 -45 -37 -125 -75 -69
-33 -125 -66 -125 -73 0 -7 7 -22 15 -33 29 -39 16 -103 -32 -152 -11 -11 -16
-7 -29 25 -73 176 -158 345 -254 506 -27 46 -50 88 -50 93 0 5 10 11 23 11 12
1 32 5 44 8 15 3 28 -3 47 -26 28 -33 31 -33 17 4 -8 21 -7 24 12 23 12 -1 31
4 43 11 22 14 172 71 190 72 6 1 41 -50 78 -111z m-493 -51 c75 -100 232 -401
285 -547 23 -61 23 -66 7 -78 -17 -12 -58 -25 -121 -36 -29 -5 -35 -3 -40 17
-9 35 -204 414 -255 496 l-46 74 20 40 c29 55 65 89 91 85 13 -2 38 -24 59
-51z m-4210 -100 c14 -12 38 -39 54 -60 26 -35 27 -39 12 -54 -14 -14 -19 -13
-50 13 -60 49 -80 80 -67 104 13 25 19 25 51 -3z m-45 -54 c-2 -3 14 -23 35
-45 42 -45 47 -59 24 -78 -12 -10 -25 -2 -75 41 -33 30 -60 56 -60 59 0 15 23
27 50 27 17 0 28 -2 26 -4z m-28 -101 c40 -35 52 -52 47 -64 -11 -29 -37 -20
-94 32 -47 42 -53 51 -42 64 20 24 31 20 89 -32z m-68 -47 c66 -48 76 -61 60
-80 -17 -21 -23 -19 -70 20 -23 19 -49 39 -57 44 -12 6 -13 12 -4 30 7 11 14
21 18 21 3 0 27 -16 53 -35z m-1160 -155 c0 -5 -15 -48 -34 -97 -18 -48 -45
-125 -60 -170 -20 -60 -32 -83 -44 -83 -35 0 -223 73 -218 85 2 7 21 67 41
134 20 67 49 151 65 187 l30 65 110 -56 c60 -31 110 -60 110 -65z m1133 79
c48 -35 55 -45 46 -60 -13 -25 -20 -24 -65 12 -22 17 -47 37 -57 44 -19 13
-14 45 8 45 7 0 38 -19 68 -41z m617 -15 c29 -9 98 -35 154 -59 56 -23 245
-102 421 -175 497 -206 477 -197 748 -316 118 -53 703 -317 827 -374 171 -79
320 -145 402 -180 181 -75 187 -187 14 -259 -41 -17 -104 -44 -139 -61 -36
-16 -67 -30 -70 -30 -3 0 -38 -15 -79 -34 -81 -38 -195 -86 -203 -86 -2 0 -2
28 2 61 6 57 5 61 -13 55 -81 -25 -276 -76 -319 -83 -16 -3 -33 -8 -36 -11 -4
-4 -1 -47 6 -97 7 -49 11 -115 9 -145 -2 -47 -2 -49 4 -15 l7 40 8 -34 c4 -18
4 -38 0 -44 -3 -6 -1 -7 5 -3 9 5 13 -12 14 -61 2 -89 2 -92 -5 -131 -5 -28
-3 -31 9 -21 11 9 14 8 14 -5 0 -9 -8 -16 -20 -16 -15 0 -20 -7 -21 -27 0 -16
-2 -38 -3 -50 -3 -26 4 -29 22 -11 10 10 12 1 11 -45 -2 -40 -6 -57 -16 -57
-7 0 -13 5 -13 10 0 6 -7 10 -16 10 -12 0 -8 -6 11 -22 20 -15 30 -18 33 -10
2 7 11 12 19 12 9 0 13 -6 9 -15 -5 -13 -1 -12 18 2 l24 18 -25 5 c-21 4 -26
11 -28 40 -1 19 -5 53 -9 75 -6 33 -5 37 5 21 6 -10 14 -41 18 -69 8 -68 26
-70 27 -4 2 74 3 77 14 77 6 0 10 -12 11 -27 0 -16 3 -22 6 -15 4 10 8 10 19
1 11 -9 14 -8 14 8 0 10 7 28 15 39 16 21 20 13 6 -14 -5 -9 -15 -38 -21 -64
-14 -54 -66 -118 -95 -118 -46 1 -154 67 -356 217 l-86 65 43 41 c24 23 44 45
44 49 0 4 15 22 33 40 17 18 37 40 42 50 39 64 73 114 93 135 12 13 22 27 22
31 0 4 9 24 20 44 11 21 22 55 26 76 5 32 3 40 -12 46 -12 5 -23 1 -30 -9 -7
-9 -38 -44 -70 -79 -33 -34 -75 -80 -94 -102 -58 -67 -205 -220 -424 -442
-165 -168 -206 -216 -195 -224 11 -8 11 -9 -3 -5 -16 6 -34 -7 -39 -28 -2 -10
-72 -74 -123 -113 -80 -61 -227 10 -274 133 -20 51 -244 951 -443 1780 -116
481 -122 511 -109 551 11 32 53 73 76 74 6 0 34 -7 64 -16z m-665 -49 c56 -41
63 -53 44 -72 -8 -8 -28 1 -75 34 -56 39 -63 47 -53 64 13 25 15 24 84 -26z
m-53 -55 c65 -43 75 -57 56 -77 -14 -14 -22 -11 -77 26 -64 44 -68 50 -49 69
17 17 19 16 70 -18z m-34 -76 c72 -46 69 -42 50 -61 -15 -14 -20 -14 -60 10
-70 41 -80 51 -72 70 9 24 17 22 82 -19z m-37 -70 c62 -37 67 -45 45 -63 -11
-9 -27 -4 -75 21 -62 34 -70 45 -49 66 16 16 12 17 79 -24z m-35 -70 c56 -31
63 -38 54 -55 -6 -10 -12 -19 -14 -19 -2 0 -33 14 -69 30 -64 29 -66 31 -55
55 6 14 13 25 15 25 3 0 34 -16 69 -36z m-20 -81 c48 -22 53 -27 44 -44 -14
-24 -16 -24 -86 7 -72 33 -67 28 -59 54 8 24 15 22 101 -17z m-49 -65 c65 -23
77 -35 63 -58 -7 -11 -22 -8 -79 14 -65 25 -82 41 -64 59 9 10 11 9 80 -15z
m40 -105 c2 -4 -1 -14 -5 -20 -6 -10 -24 -7 -75 9 -55 18 -67 26 -67 43 0 12
2 24 6 27 6 7 138 -48 141 -59z m-1102 -46 c23 -8 39 -20 38 -28 -1 -8 -11
-72 -23 -144 -19 -118 -39 -359 -40 -477 l0 -46 -107 -7 c-60 -4 -115 -7 -123
-8 -32 -4 -8 407 41 687 5 33 12 62 14 66 5 8 136 -20 200 -43z m1009 13 c71
-24 76 -27 69 -45 -7 -19 -32 -19 -94 1 -53 18 -64 27 -55 49 7 19 12 19 80
-5z m-4 -75 c30 -6 55 -17 54 -23 -2 -28 -5 -32 -21 -32 -9 0 -43 7 -75 16
-42 12 -58 21 -58 34 0 23 11 32 29 24 9 -4 41 -12 71 -19z m5374 6 c3 -4 -6
-6 -19 -3 -14 2 -25 6 -25 8 0 8 39 4 44 -5z m-5905 -146 c-2 -52 0 -98 4
-101 4 -4 7 3 7 15 0 12 4 20 10 16 5 -3 7 -13 4 -23 -5 -15 -4 -16 8 -1 10
12 19 14 37 8 12 -5 26 -7 31 -4 4 3 13 -2 20 -10 9 -11 10 -34 5 -81 -12
-110 -7 -411 9 -534 25 -199 77 -406 155 -620 73 -201 110 -276 249 -500 20
-32 11 -24 -26 22 -28 36 -30 37 -35 16 -4 -12 -4 -24 -2 -27 3 -2 5 1 5 8 0
7 5 9 11 6 7 -5 3 -14 -10 -26 -23 -22 -41 -25 -42 -6 0 9 -2 9 -6 -1 -4 -10
-8 -10 -19 -1 -8 6 -11 15 -8 20 3 5 1 9 -4 9 -5 0 -12 10 -15 22 -4 12 -9 19
-12 16 -16 -16 151 -269 264 -402 73 -86 280 -284 361 -347 78 -61 247 -179
255 -179 1 0 32 -18 67 -39 89 -54 244 -131 264 -131 9 0 -5 12 -32 26 -57 30
-68 39 -36 30 23 -8 31 8 10 18 -7 4 -3 4 8 2 18 -3 22 1 19 22 -1 15 -8 28
-14 30 -13 4 -63 45 -105 87 -17 16 -35 28 -39 27 -4 -1 -3 7 3 18 6 11 15 20
20 20 5 0 20 16 33 35 13 19 27 32 32 27 4 -4 5 7 2 23 -4 17 -4 24 -1 18 3
-7 10 -13 15 -13 6 0 65 -27 132 -59 173 -83 212 -101 228 -101 8 0 23 -6 34
-14 20 -13 149 -54 240 -76 155 -36 215 -47 340 -60 195 -20 226 -33 269 -111
11 -19 18 -44 17 -57 l-3 -24 94 7 c481 34 947 211 1363 518 61 45 112 84 115
87 3 3 12 11 21 17 13 10 16 10 16 -2 0 -8 -4 -12 -8 -10 -11 8 -30 -21 -23
-38 3 -9 -6 -25 -23 -41 -15 -14 -23 -26 -18 -26 6 0 22 11 35 23 22 21 26 22
36 8 10 -13 20 -9 69 33 93 80 228 223 326 346 137 172 200 272 319 510 92
184 156 355 204 546 44 177 53 235 75 477 10 109 21 201 25 204 3 3 9 -8 12
-25 5 -26 15 -34 68 -56 120 -51 130 -59 138 -96 17 -77 -20 -392 -69 -594
-20 -82 -39 -144 -41 -138 -2 7 4 42 13 78 9 36 14 68 12 71 -6 5 -12 -13 -22
-66 -4 -18 -10 -29 -14 -23 -3 6 -39 11 -80 11 -41 0 -79 5 -85 11 -16 16 -26
12 -26 -10 0 -11 -4 -28 -9 -38 -6 -9 -30 -70 -56 -134 -214 -544 -602 -1037
-1060 -1347 -463 -314 -939 -463 -1480 -463 -459 0 -838 93 -1250 306 -280
144 -572 364 -757 569 -202 223 -330 408 -455 657 -119 236 -206 504 -254 785
-25 140 -36 515 -20 667 11 107 40 278 48 278 3 0 3 -43 2 -95z m505 73 c58
-12 78 -30 59 -49 -11 -11 -130 7 -146 21 -13 11 2 52 16 46 7 -2 38 -10 71
-18z m4 -74 c36 -6 42 -10 42 -30 0 -20 -5 -24 -30 -24 -16 0 -52 5 -80 11
-37 8 -50 15 -50 28 0 26 11 33 45 27 16 -3 49 -8 73 -12z m-371 -76 c-3 -8
-6 -5 -6 6 -1 11 2 17 5 13 3 -3 4 -12 1 -19z m352 -4 c50 -6 58 -14 45 -47
-4 -11 -15 -12 -57 -5 -96 16 -97 16 -97 44 0 24 3 26 29 21 15 -3 51 -9 80
-13z m-21 -80 c54 -7 75 -25 54 -46 -9 -9 -149 5 -160 17 -2 2 -1 13 3 25 5
16 13 20 28 16 12 -3 46 -8 75 -12z m50 -107 c4 -19 -27 -22 -112 -11 -39 6
-46 10 -46 28 0 22 1 22 77 12 61 -9 78 -15 81 -29z m-12 -60 c4 -3 4 -12 2
-19 -4 -9 -26 -12 -82 -10 -69 3 -76 5 -76 24 0 19 4 20 75 16 42 -3 78 -8 81
-11z m-16 -75 c8 -4 16 -13 18 -20 2 -10 -16 -12 -75 -10 -65 3 -78 6 -81 21
-3 15 5 17 60 16 35 0 70 -3 78 -7z m5641 -104 c2 -119 -1 -212 -11 -293 -29
-236 -89 -511 -159 -735 -54 -175 -131 -365 -138 -343 -2 6 7 34 20 62 l25 50
-137 72 c-149 79 -224 126 -181 114 29 -8 262 -129 301 -156 l25 -18 16 51 15
50 -29 18 c-16 9 -85 46 -154 81 -87 45 -124 69 -124 81 0 10 13 59 29 110 32
104 31 100 67 256 14 63 23 116 20 120 -3 3 -6 -6 -7 -19 0 -23 -1 -23 -10 -4
-8 18 -9 17 -5 -5 2 -14 0 -34 -4 -45 -7 -17 -9 -16 -10 10 -1 30 -1 30 -15
-8 -16 -45 -30 -63 -22 -27 14 57 36 202 47 307 l13 112 28 -14 28 -15 5 43
c3 23 8 67 11 97 3 30 10 62 15 69 11 19 24 -67 17 -120 -3 -21 -4 -39 -4 -40
8 -4 293 -26 297 -22 2 2 6 49 8 103 4 98 21 141 23 58z m-5651 28 c0 -8 -48
-12 -66 -5 -13 5 -7 8 24 8 23 1 42 -1 42 -3z m5423 -153 c-7 -2 -19 -2 -25 0
-7 3 -2 5 12 5 14 0 19 -2 13 -5z m-5468 -72 l40 -9 -53 1 c-29 0 -55 4 -58 8
-6 11 18 11 71 0z m102 -67 c5 -16 -30 -24 -104 -24 -48 0 -63 3 -63 14 0 16
29 21 114 21 28 0 51 -5 53 -11z m13 -73 c0 -16 -11 -20 -72 -27 -40 -5 -77
-8 -83 -9 -5 0 -10 9 -10 20 0 17 9 21 65 26 36 3 73 6 83 7 11 1 17 -5 17
-17z m10 -75 c0 -21 -6 -24 -51 -30 -29 -4 -65 -10 -80 -13 -26 -5 -29 -3 -29
19 0 22 6 25 63 35 97 16 97 16 97 -11z m4367 -16 c40 -9 50 -15 46 -27 -4
-11 -14 -13 -36 -9 -77 15 -107 27 -107 42 0 12 6 15 23 10 12 -3 46 -10 74
-16z m-4347 -53 c0 -21 -8 -25 -77 -40 -61 -13 -79 -14 -85 -4 -14 22 -2 32
53 43 30 6 61 13 69 17 29 11 40 7 40 -16z m4372 -37 c5 0 8 -7 8 -15 0 -19
-6 -19 -85 1 -50 13 -65 21 -65 35 0 17 3 17 67 -2 38 -10 71 -19 75 -19z
m-4349 -30 c6 -24 9 -23 -82 -50 -60 -18 -75 -19 -82 -8 -19 28 -4 42 60 55
36 7 67 15 69 18 12 12 30 4 35 -15z m4257 -29 c45 -13 66 -23 68 -36 3 -14
-1 -17 -20 -12 -12 4 -47 12 -75 19 -49 11 -63 24 -46 41 3 4 7 7 7 7 1 -1 30
-9 66 -19z m-4230 -63 c0 -7 -122 -48 -146 -48 -7 0 -18 9 -24 20 -12 23 -13
22 65 40 28 6 57 15 65 20 14 9 40 -11 40 -32z m5005 -20 c-12 -16 -16 -18
-11 -5 3 10 6 26 6 35 0 12 3 13 11 5 8 -8 7 -17 -6 -35z m-795 -3 c64 -20 72
-26 62 -42 -11 -18 -136 29 -141 52 -2 12 2 16 10 13 8 -3 39 -13 69 -23z
m-4192 -41 c-2 -13 -25 -27 -72 -43 -67 -24 -69 -24 -82 -6 -8 10 -14 21 -14
25 0 9 154 56 163 49 5 -4 7 -15 5 -25z m4155 -35 c26 -7 47 -17 47 -21 0 -4
7 -5 15 -2 16 7 18 3 9 -20 -5 -13 -13 -12 -62 6 -62 22 -82 35 -82 50 0 6 6
8 13 6 6 -3 33 -11 60 -19z m-1396 -21 c-3 -7 -5 -2 -5 12 0 14 2 19 5 13 2
-7 2 -19 0 -25z m-2727 13 c0 -5 2 -16 5 -24 4 -10 -16 -23 -71 -46 -74 -31
-79 -32 -91 -15 -20 27 -13 35 48 53 30 10 63 23 74 29 24 14 35 15 35 3z
m-1063 -63 c-3 -7 -5 -2 -5 12 0 14 2 19 5 13 2 -7 2 -19 0 -25z m3740 0 c-3
-8 -6 -5 -6 6 -1 11 2 17 5 13 3 -3 4 -12 1 -19z m1423 -5 c50 -21 65 -32 62
-45 -2 -10 -5 -18 -6 -18 -13 0 -136 62 -136 68 0 7 10 22 14 22 1 0 31 -12
66 -27z m-4067 -15 c8 -29 7 -31 -69 -67 -59 -28 -69 -30 -82 -17 -20 20 -9
43 25 50 16 4 47 18 68 31 49 30 51 30 58 3z m-1195 -28 c-14 -4 -32 -11 -40
-15 -7 -3 -4 1 6 9 11 9 29 16 40 15 17 -1 16 -2 -6 -9z m5229 -32 c67 -35 67
-36 54 -56 -6 -10 -19 -8 -62 12 -73 33 -81 40 -73 59 8 23 10 22 81 -15z
m-5300 16 c-3 -3 -12 -4 -19 -1 -8 3 -5 6 6 6 11 1 17 -2 13 -5z m1297 -61
c-10 -8 -45 -28 -77 -44 l-57 -29 -13 27 c-7 16 -8 28 -2 30 6 2 39 19 75 37
64 33 65 33 79 13 13 -18 12 -22 -5 -34z m3959 -33 c26 -16 52 -30 56 -30 5 0
7 -9 4 -20 -7 -26 -11 -26 -77 12 -35 20 -56 39 -56 50 0 26 19 22 73 -12z
m-5010 -32 c-2 -5 -8 -8 -14 -8 -11 0 -12 33 -2 44 8 8 23 -25 16 -36z m1101
25 c7 -18 7 -19 -83 -70 -51 -29 -65 -33 -72 -22 -17 28 -8 39 59 73 77 40 87
42 96 19z m3908 -99 c11 -6 14 -14 9 -23 -7 -11 -17 -10 -52 8 -68 33 -82 47
-74 71 6 20 8 19 53 -13 26 -19 55 -38 64 -43z m-3871 30 c11 -14 9 -19 -11
-35 -14 -10 -49 -31 -78 -46 -45 -24 -54 -26 -62 -13 -15 24 -14 26 53 69 70
45 79 47 98 25z m3773 -68 c61 -39 68 -47 57 -65 -12 -18 -132 64 -124 85 7
19 6 19 67 -20z m-3723 -2 c15 -18 17 -16 -78 -70 -61 -35 -83 -37 -83 -9 0
15 115 94 136 95 6 0 17 -7 25 -16z m3711 -95 c35 -25 36 -27 20 -42 -16 -15
-21 -13 -70 24 -49 38 -61 57 -45 72 7 7 28 -5 95 -54z m-3664 21 c1 -9 -26
-34 -67 -63 l-70 -47 -15 22 c-15 21 -14 23 52 65 68 43 95 50 100 23z m3554
-53 c15 -12 39 -30 53 -40 24 -17 33 -51 17 -61 -7 -4 -77 47 -116 84 -10 10
-1 40 11 40 4 0 20 -10 35 -23z m-3502 -17 c0 -4 -30 -30 -67 -58 -66 -49 -68
-50 -82 -30 -12 18 -12 22 0 28 8 5 39 26 69 48 40 29 58 37 68 30 6 -6 12
-14 12 -18z m49 -63 c-2 -2 -33 -27 -68 -56 -60 -49 -66 -52 -78 -36 -11 16
-5 24 55 71 58 45 69 51 81 38 8 -7 13 -15 10 -17z m3431 -16 c49 -41 57 -51
45 -61 -17 -14 -26 -9 -82 44 -41 38 -55 66 -33 66 6 0 37 -22 70 -49z m-3380
-31 c0 -10 -118 -120 -129 -120 -5 0 -14 6 -20 14 -10 11 -2 22 36 53 26 21
56 46 66 55 18 16 47 15 47 -2z m3323 -36 c47 -44 54 -54 44 -68 -10 -14 -19
-9 -69 39 -57 53 -65 65 -51 79 10 10 15 6 76 -50z m-3833 26 c6 -11 8 -20 6
-20 -3 0 -10 9 -16 20 -6 11 -8 20 -6 20 3 0 10 -9 16 -20z m559 -44 c9 -10
-2 -25 -52 -67 -34 -30 -64 -57 -65 -62 -5 -11 -32 13 -32 28 0 12 116 115
130 115 4 0 13 -6 19 -14z m3215 -42 c44 -45 54 -60 45 -70 -6 -8 -14 -14 -18
-14 -14 0 -112 120 -106 130 11 18 22 11 79 -46z m1222 4 c123 -78 148 -98
126 -98 -10 0 -192 118 -192 125 0 11 19 4 66 -27z m-4366 -28 c0 -3 -29 -34
-64 -69 -56 -55 -67 -62 -80 -51 -9 7 -16 16 -16 20 0 4 28 35 62 68 53 51 64
58 80 49 10 -7 18 -14 18 -17z m3085 -35 c31 -35 45 -60 41 -71 -3 -8 -10 -14
-16 -12 -17 6 -109 121 -104 130 12 19 35 5 79 -47z m-3032 -19 c5 -12 -107
-136 -123 -136 -4 0 -13 7 -20 16 -11 13 -4 24 50 79 59 60 82 70 93 41z
m2957 -18 c68 -83 65 -77 48 -94 -13 -13 -20 -8 -62 46 -28 35 -46 67 -42 75
9 23 19 18 56 -27z m-41 -78 c42 -56 46 -73 19 -78 -10 -2 -32 19 -57 54 -43
60 -49 79 -28 87 15 6 16 5 66 -63z m-2859 45 c10 -12 2 -26 -46 -80 -59 -67
-69 -72 -88 -42 -9 14 0 28 49 77 33 33 62 60 66 60 4 0 12 -7 19 -15z m2797
-103 c31 -49 33 -56 19 -70 -17 -18 -37 -7 -59 33 -6 12 -20 37 -30 54 -14 26
-16 35 -6 47 16 19 31 6 76 -64z m-2731 43 c7 -17 -92 -145 -112 -145 -18 0
-25 30 -11 49 37 52 93 111 104 111 8 0 16 -7 19 -15z m2652 -87 c31 -46 38
-65 30 -75 -6 -7 -16 -13 -23 -13 -16 0 -88 127 -80 140 14 22 34 7 73 -52z
m-2583 32 c3 -5 3 -10 -2 -10 -4 0 -28 -32 -53 -70 -25 -38 -48 -70 -52 -70
-4 0 -12 8 -17 19 -8 15 -5 25 15 47 14 16 37 44 51 62 26 32 47 40 58 22z
m2509 -81 c42 -70 43 -75 17 -89 -17 -9 -24 -2 -55 57 -39 73 -43 89 -23 96
18 6 21 3 61 -64z m-2454 18 c-6 -7 -29 -41 -51 -76 -33 -52 -43 -62 -50 -49
-12 21 -1 48 16 42 10 -4 12 1 8 15 -4 15 -1 21 11 21 9 0 15 6 14 13 -2 6 2
11 8 10 6 -1 17 9 24 22 7 13 17 22 21 19 5 -3 4 -10 -1 -17z m2378 -60 c37
-73 39 -83 13 -97 -17 -9 -23 -2 -56 67 -28 59 -33 78 -23 84 24 16 33 9 66
-54z m562 33 c0 -5 -5 -10 -11 -10 -5 0 -7 5 -4 10 3 6 8 10 11 10 2 0 4 -4 4
-10z m-635 -87 c36 -73 37 -77 19 -90 -23 -16 -30 -8 -76 81 -29 57 -29 60
-12 73 10 7 21 13 25 13 3 0 23 -35 44 -77z m-81 -40 c15 -37 30 -72 32 -78 3
-6 -6 -16 -20 -23 -23 -10 -25 -8 -52 56 -15 37 -32 72 -36 79 -9 11 15 32 37
33 6 0 23 -30 39 -67z m-80 -47 c29 -76 28 -96 -2 -96 -13 0 -26 22 -45 75
-29 77 -29 95 1 95 12 0 26 -22 46 -74z m1215 29 c-41 -57 -300 -310 -394
-386 -134 -108 -348 -245 -500 -321 -294 -148 -663 -258 -1000 -298 -118 -15
-442 -15 -575 0 -96 10 -349 57 -359 66 -8 8 25 4 94 -11 154 -32 371 -48 600
-42 224 6 288 12 475 48 338 65 749 231 1027 415 208 137 428 323 584 493 41
44 75 81 77 81 2 0 -11 -20 -29 -45z m-449 31 c0 -2 -7 -6 -15 -10 -8 -3 -15
-1 -15 4 0 6 7 10 15 10 8 0 15 -2 15 -4z m-846 -104 c29 -74 27 -87 -8 -94
-16 -2 -23 11 -45 79 -27 81 -27 82 -6 91 25 12 26 12 59 -76z m-88 -28 c23
-72 25 -87 13 -95 -28 -18 -39 -8 -54 49 -9 31 -20 69 -25 84 -7 22 -5 30 8
38 9 5 20 10 24 10 4 0 19 -39 34 -86z m-92 -9 c30 -101 31 -112 6 -120 -29
-9 -33 -3 -53 83 -18 79 -16 92 13 92 14 0 23 -14 34 -55z m-80 -53 c11 -45
18 -83 15 -86 -2 -2 -13 -6 -25 -10 -20 -6 -22 0 -38 80 -15 72 -15 88 -4 95
24 16 33 3 52 -79z m-98 31 c3 -16 10 -44 15 -63 16 -63 12 -90 -14 -90 -20 0
-24 8 -38 85 -8 47 -13 88 -10 90 14 15 41 2 47 -22z m-76 -65 c7 -40 15 -78
17 -84 3 -9 -36 -28 -43 -21 -6 6 -30 167 -26 172 3 3 13 5 22 5 13 0 20 -17
30 -72z m-95 40 c11 -50 23 -143 18 -150 -9 -16 -43 -8 -44 10 0 9 -2 26 -4
37 -13 83 -13 114 -2 118 22 9 27 7 32 -15z m-600 -85 c-7 -87 -13 -110 -22
-85 -4 10 -8 10 -19 1 -18 -14 -18 -8 -2 94 10 65 14 77 31 77 18 0 18 -5 12
-87z m88 4 c-6 -78 -18 -111 -36 -104 -8 3 -11 29 -9 83 3 96 5 104 31 97 18
-5 19 -11 14 -76z m431 51 c3 -18 8 -57 12 -85 6 -52 6 -53 -20 -53 -24 0 -26
4 -26 39 0 21 -3 59 -6 85 -6 42 -5 46 14 46 15 0 21 -8 26 -32z m-346 -65
c-3 -83 -4 -88 -25 -91 -22 -3 -23 0 -23 56 0 88 9 122 32 122 17 0 19 -7 16
-87z m90 0 c-3 -83 -4 -88 -25 -91 -22 -3 -23 -1 -23 87 0 91 0 91 25 91 l26
0 -3 -87z m87 12 c8 -84 3 -108 -22 -103 -15 3 -18 17 -21 91 -3 81 -1 87 17
87 17 0 20 -10 26 -75z m89 23 c11 -99 9 -115 -19 -120 -23 -5 -25 -3 -25 37
0 23 -3 63 -6 89 -6 44 -6 46 18 46 23 0 26 -5 32 -52z m-539 -55 c-3 -23 -9
-43 -13 -43 -19 1 -28 17 -21 40 l7 25 2 -25 2 -25 8 25 c4 14 9 41 10 60 2
27 4 30 7 11 3 -13 2 -44 -2 -68z m-91 8 c-6 -40 -17 -51 -29 -31 -3 6 -2 10
4 10 6 0 13 16 17 35 9 50 16 37 8 -14z m2330 -557 c3 -8 2 -12 -4 -9 -6 3
-10 10 -10 16 0 14 7 11 14 -7z m24 -49 c-3 -3 -9 2 -12 12 -6 14 -5 15 5 6 7
-7 10 -15 7 -18z m-2625 -52 c-7 -2 -19 -2 -25 0 -7 3 -2 5 12 5 14 0 19 -2
13 -5z m2452 -173 c-3 -5 -11 -10 -16 -10 -6 0 -7 5 -4 10 3 6 11 10 16 10 6
0 7 -4 4 -10z"/>
<path d="M8353 8040 c-19 -17 -85 -60 -198 -127 -22 -13 -60 -33 -85 -44 -24
-11 -47 -24 -50 -28 -3 -4 -27 -13 -53 -21 -26 -7 -46 -15 -43 -17 5 -5 139
32 171 47 11 5 31 14 45 20 64 26 190 121 229 173 18 23 10 22 -16 -3z"/>
<path d="M7461 7020 c-13 -11 -19 -20 -13 -20 6 0 17 6 24 13 7 8 20 16 28 20
13 5 13 5 0 6 -8 0 -26 -9 -39 -19z"/>
<path d="M3680 6870 c0 -5 5 -10 11 -10 5 0 7 5 4 10 -3 6 -8 10 -11 10 -2 0
-4 -4 -4 -10z"/>
<path d="M8075 6670 c-3 -6 1 -7 9 -4 18 7 21 14 7 14 -6 0 -13 -4 -16 -10z"/>
<path d="M4170 6058 c118 -115 232 -216 530 -468 69 -58 156 -132 195 -165
174 -149 280 -231 241 -186 -28 31 -29 58 -5 75 15 10 19 20 14 35 -5 17 -2
21 16 21 22 0 22 1 4 20 -18 20 -18 20 11 17 16 -2 39 -9 52 -16 48 -26 18 1
-50 45 -40 25 -89 57 -108 69 -199 128 -299 185 -314 179 -9 -4 -24 0 -34 8
-9 8 -26 18 -36 22 -10 3 -16 9 -13 12 6 7 49 -14 58 -29 4 -5 13 -7 20 -5 9
3 3 11 -16 23 -17 11 -48 33 -70 49 -29 23 -37 26 -32 13 6 -16 2 -15 -34 5
-23 13 -45 32 -49 44 -5 11 -46 45 -92 76 -182 121 -322 210 -337 215 -9 3 13
-24 49 -59z m945 -729 c11 -17 -1 -21 -15 -4 -8 9 -8 15 -2 15 6 0 14 -5 17
-11z m-30 -20 c11 -17 -1 -21 -15 -4 -8 9 -8 15 -2 15 6 0 14 -5 17 -11z"/>
<path d="M4597 5799 c7 -7 15 -10 18 -7 3 3 -2 9 -12 12 -14 6 -15 5 -6 -5z"/>
<path d="M5490 4226 c0 -2 7 -6 15 -10 8 -3 15 -1 15 4 0 6 -7 10 -15 10 -8 0
-15 -2 -15 -4z"/>
<path d="M5485 4190 c3 -5 10 -10 16 -10 5 0 9 5 9 10 0 6 -7 10 -16 10 -8 0
-12 -4 -9 -10z"/>
<path d="M5580 4190 c0 -5 5 -10 10 -10 6 0 10 5 10 10 0 6 -4 10 -10 10 -5 0
-10 -4 -10 -10z"/>
<path d="M7671 4454 c0 -11 3 -14 6 -6 3 7 2 16 -1 19 -3 4 -6 -2 -5 -13z"/>
<path d="M2701 3844 c0 -11 3 -14 6 -6 3 7 2 16 -1 19 -3 4 -6 -2 -5 -13z"/>
<path d="M6670 3150 c0 -5 5 -10 10 -10 6 0 10 5 10 10 0 6 -4 10 -10 10 -5 0
-10 -4 -10 -10z"/>
<path d="M6645 3130 c3 -5 8 -10 11 -10 2 0 4 5 4 10 0 6 -5 10 -11 10 -5 0
-7 -4 -4 -10z"/>
<path d="M6692 3089 c-27 -33 -18 -38 17 -8 14 11 20 23 15 28 -5 5 -19 -4
-32 -20z"/>
<path d="M2728 5163 c6 -2 18 -2 25 0 6 3 1 5 -13 5 -14 0 -19 -2 -12 -5z"/>
<path d="M8140 4780 c14 -4 43 -9 65 -9 31 -1 37 -4 25 -12 -12 -9 -12 -10 4
-5 10 4 24 2 30 -3 6 -4 44 -12 85 -15 40 -4 79 -10 87 -13 9 -3 14 2 14 15 0
16 -8 22 -32 26 -71 11 -228 26 -265 25 -34 -1 -35 -2 -13 -9z m183 -27 c-7
-2 -21 -2 -30 0 -10 3 -4 5 12 5 17 0 24 -2 18 -5z m85 -10 c-10 -2 -26 -2
-35 0 -10 3 -2 5 17 5 19 0 27 -2 18 -5z"/>
<path d="M8125 4686 c-8 -67 -54 -290 -69 -341 -61 -195 -69 -226 -60 -234 13
-13 275 -144 278 -140 1 2 19 63 40 134 39 135 99 426 111 531 l7 61 -109 12
c-59 7 -127 16 -150 21 l-42 7 -6 -51z"/>
<path d="M8575 9369 c-4 -5 -31 -21 -60 -33 -71 -32 -78 -46 -21 -46 39 0 48
4 75 37 17 21 31 41 31 45 0 12 -18 10 -25 -3z"/>
<path d="M8280 9243 c-36 -13 -50 -41 -37 -73 3 -8 8 -22 10 -30 4 -12 6 -11
6 2 1 27 33 60 43 45 5 -8 8 -7 8 6 0 9 4 17 9 17 5 0 7 9 4 20 -5 20 -15 23
-43 13z"/>
<path d="M7960 8870 c-9 -6 -10 -10 -3 -10 6 0 15 5 18 10 8 12 4 12 -15 0z"/>
<path d="M4698 8493 c7 -3 16 -2 19 1 4 3 -2 6 -13 5 -11 0 -14 -3 -6 -6z"/>
<path d="M4535 8480 c-27 -7 -27 -8 -5 -8 14 0 39 4 55 8 27 7 27 8 5 8 -14 0
-38 -4 -55 -8z"/>
<path d="M4405 8459 c-220 -40 -460 -112 -650 -196 -167 -74 -383 -193 -349
-193 4 0 51 25 103 55 114 64 354 169 501 218 58 19 187 53 285 76 99 23 185
44 190 46 18 6 -29 3 -80 -6z"/>
<path d="M3435 8364 l-46 -47 -84 13 c-45 7 -101 10 -123 7 -96 -12 -212 -103
-258 -201 -24 -52 -29 -89 -18 -143 l6 -29 108 27 c131 33 177 53 283 122 45
30 114 71 152 92 94 51 98 55 84 71 -6 8 -9 38 -7 71 3 57 2 58 -24 61 -22 3
-37 -7 -73 -44z"/>
<path d="M6237 8299 c7 -7 15 -10 18 -7 3 3 -2 9 -12 12 -14 6 -15 5 -6 -5z"/>
<path d="M6270 8286 c0 -2 7 -7 16 -10 8 -3 12 -2 9 4 -6 10 -25 14 -25 6z"/>
<path d="M6380 8236 c0 -2 7 -7 16 -10 8 -3 12 -2 9 4 -6 10 -25 14 -25 6z"/>
<path d="M6420 8216 c0 -2 7 -7 16 -10 8 -3 12 -2 9 4 -6 10 -25 14 -25 6z"/>
<path d="M1225 4881 c-18 -106 29 -218 108 -259 39 -20 51 -22 57 -12 6 10 -5
26 -36 53 -53 47 -77 91 -94 172 -17 85 -26 97 -35 46z"/>
<path d="M1731 4424 c0 -11 3 -14 6 -6 3 7 2 16 -1 19 -3 4 -6 -2 -5 -13z"/>
<path d="M2040 3185 c0 -2 10 -10 23 -16 20 -11 21 -11 8 4 -13 16 -31 23 -31
12z"/>
<path d="M1700 3130 c0 -5 5 -10 10 -10 6 0 10 5 10 10 0 6 -4 10 -10 10 -5 0
-10 -4 -10 -10z"/>
<path d="M1730 3100 c0 -5 -8 -10 -17 -10 -12 0 -14 -3 -7 -10 14 -14 44 -2
44 16 0 8 -4 14 -10 14 -5 0 -10 -4 -10 -10z"/>
<path d="M3140 2050 l25 -20 -37 15 c-21 8 -38 13 -38 10 0 -8 53 -54 62 -55
4 0 31 -15 60 -34 54 -34 192 -96 215 -96 7 0 13 -4 13 -9 0 -10 91 -51 113
-51 8 0 17 10 21 23 9 35 7 40 -9 27 -12 -10 -15 -9 -15 4 0 9 7 19 15 22 9 4
-47 27 -125 54 -77 26 -172 63 -212 83 -96 46 -122 54 -88 27z"/>
<path d="M2860 1762 c-48 -6 -79 -24 -94 -57 -32 -68 -14 -135 45 -165 32 -17
35 -17 71 2 66 34 94 119 58 176 -11 17 -26 32 -34 32 -8 0 -16 3 -18 8 -1 4
-14 6 -28 4z m-8 -57 c-6 -34 -22 -32 -17 3 2 15 4 28 4 30 1 2 5 1 10 -2 4
-3 6 -17 3 -31z m57 -36 c-8 -17 -14 -20 -17 -10 -2 7 2 17 9 22 11 7 9 9 -6
9 -16 0 -17 2 -5 10 22 14 34 -5 19 -31z m-99 -2 c0 -7 -4 -6 -10 3 -8 12 -10
12 -10 1 0 -8 -3 -12 -6 -8 -9 9 6 28 17 22 5 -4 9 -12 9 -18z m20 -31 c0 -7
-8 -20 -17 -27 -15 -12 -16 -12 -10 4 4 11 3 16 -3 12 -6 -3 -10 -15 -10 -27
0 -17 -2 -18 -15 -8 -8 7 -15 23 -15 36 0 21 5 24 35 24 23 0 35 -5 35 -14z"/>
</g>
</svg>
